<svg xmlns="http://www.w3.org/2000/svg" width="34.88" height="35" viewBox="0 0 34.88 35">
  <g id="InstegramLogo" transform="translate(-86.103 -562.572)">
    <path id="Path_369" data-name="Path 369" d="M90.423,571.213v-7.561a1.066,1.066,0,0,1,.08-.54,1.575,1.575,0,0,1,.56-.26l.36-.08v8.44h1.44v-8.6h.92v8.6h1.44v-8.64h18.92a6.514,6.514,0,0,1,3.34.9,7.086,7.086,0,0,1,2.48,2.42,6.422,6.422,0,0,1,.98,3.28q.039,1,.04,2.4-.041,2.961-.04,2.439h-10.72a.688.688,0,0,1-.56-.24,9.214,9.214,0,0,0-3.96-2.16,8.634,8.634,0,0,0-4.4.021,9.373,9.373,0,0,0-3.96,2.18.575.575,0,0,1-.4.2h-10.6l-.2-.04v-1.52q-.041.478-.04-1.841a17.772,17.772,0,0,1,.08-1.84,6.479,6.479,0,0,1,2.68-4.84l.16-.04v7.32h1.4Zm20.4,3.879h10.12v15.719a6.573,6.573,0,0,1-.92,3.4,6.757,6.757,0,0,1-2.48,2.46,6.687,6.687,0,0,1-3.4.9h-21.2a6.313,6.313,0,0,1-3.4-.881,7.059,7.059,0,0,1-2.5-2.479,6.463,6.463,0,0,1-.94-3.4v-15.68h10.12a8.8,8.8,0,0,0-1.12,8.08,9.092,9.092,0,0,0,7.18,5.86,9.028,9.028,0,0,0,3.82-.3,8.741,8.741,0,0,0,3.36-1.88,8.494,8.494,0,0,0,2.24-3.2,9.013,9.013,0,0,0,.68-4.159A9.691,9.691,0,0,0,110.823,575.092Zm-7.28,12a6.976,6.976,0,0,1-3.48-.9,6.615,6.615,0,0,1-2.52-2.479,6.889,6.889,0,0,1,0-6.879,6.915,6.915,0,0,1,2.52-2.521,6.716,6.716,0,0,1,3.46-.939,6.614,6.614,0,0,1,3.44.939,6.976,6.976,0,0,1,2.5,2.521,6.818,6.818,0,0,1-5.92,10.258Zm5.04-6.839a5.117,5.117,0,0,0-2.52-4.4,5.084,5.084,0,0,0-5.08,0,5.08,5.08,0,0,0-1.84,1.84,5.084,5.084,0,0,0,0,5.08,5.2,5.2,0,0,0,1.84,1.86,4.821,4.821,0,0,0,2.54.7,4.928,4.928,0,0,0,2.54-.681,5.065,5.065,0,0,0,1.84-1.84A4.966,4.966,0,0,0,108.583,580.253Zm9.2-11.8v-1.841a1.106,1.106,0,0,0-.3-.819,1.055,1.055,0,0,0-.78-.3q-1.84-.039-3.72,0a1,1,0,0,0-.8.319,1.23,1.23,0,0,0-.28.84v3.681a1.1,1.1,0,0,0,.3.819,1.056,1.056,0,0,0,.78.3h3.68a1.038,1.038,0,0,0,1.12-1.12Z" fill="#79828b"/>
  </g>
</svg>
