<svg xmlns="http://www.w3.org/2000/svg" width="29.92" height="35.001" viewBox="0 0 29.92 35.001">
  <g id="OneNoteLogo" transform="translate(-160.957 -345.426)">
    <path id="Path_352" data-name="Path 352" d="M188.437,350.547q.24.32.4.56a9.88,9.88,0,0,1,.44.92,8.53,8.53,0,0,1,.48,1.32q.24.881.44,1.92.2,1.2.36,2.64.159,1.641.24,3.52.079,2.121.08,4.56a34.076,34.076,0,0,1-.28,4.52,23.53,23.53,0,0,1-.76,3.44,16.121,16.121,0,0,1-1.12,2.56,9.887,9.887,0,0,1-1.24,1.761,7.389,7.389,0,0,1-1.28,1.159,9.077,9.077,0,0,1-1.08.641c-.267.106-.534.2-.8.28l-.28.079h-3.8a5.421,5.421,0,0,1-3.48-1.079,5.137,5.137,0,0,1-1.76-4.28,3.619,3.619,0,0,1,.88-2.48,4.892,4.892,0,0,1,1.92-1.24,7.8,7.8,0,0,1,1.88-.44l.88-.08v2.76l-1.24-.08q-1.281,0-1.28,1.64a2.561,2.561,0,0,0,.28,1.16,3.5,3.5,0,0,0,.6.8l.32.28h3.68a1.611,1.611,0,0,0,1.24-.521,2.088,2.088,0,0,0,.52-.96l.08-.52v-3.2a2.857,2.857,0,0,0-.56-1.7,3.709,3.709,0,0,0-1.56-1.22,5.927,5.927,0,0,0-2.52-.52,3.856,3.856,0,0,1-2-.6,6.472,6.472,0,0,1-1.56-1.24,11.3,11.3,0,0,1-.96-1.28l-.36-.6-.04,3.92a1.452,1.452,0,0,1-.28.68,3.346,3.346,0,0,1-1.12,1.08,6.012,6.012,0,0,1-2.36.8,14.027,14.027,0,0,1-4.04-.12,5.933,5.933,0,0,1-4.16-3.16,16.644,16.644,0,0,1-1.84-5.44,23.4,23.4,0,0,1-.44-4.36,5.521,5.521,0,0,1,.28-1.76,4.486,4.486,0,0,1,.68-1.2,4.143,4.143,0,0,1,.64-.72l.28-.24h6.68l1.44-1.56v-4.88a5.76,5.76,0,0,1,.08-1.24,1.483,1.483,0,0,1,.72-1,4.69,4.69,0,0,1,2.2-.4,5.762,5.762,0,0,1,2.04.36,5.563,5.563,0,0,1,1.44.84,7.975,7.975,0,0,1,.8.84l.28.4h4.24a8.675,8.675,0,0,1,3.12.74,4.647,4.647,0,0,1,2.28,1.5Zm-20.4,2.4,1.44-1.4v-5.76l-7.08,7.16h5.64Zm15.88,9.68,2.12.4-.52-.8a8.618,8.618,0,0,0-1.2-1.44,2.223,2.223,0,0,0-1.36-.76,1.262,1.262,0,0,0-1,.56,4.506,4.506,0,0,0-.48,1.08q-.081.321-.16.6Q181.716,362.267,183.917,362.627Z" fill="#79828b"/>
  </g>
</svg>
