<svg xmlns="http://www.w3.org/2000/svg" width="29.092" height="34.975" viewBox="0 0 29.092 34.975">
  <g id="YouTubeLogo" transform="translate(-161.451 -1353.599)">
    <path id="Path_436" data-name="Path 436" d="M190.4,1383.12a9.116,9.116,0,0,1-.74,3.14,3.487,3.487,0,0,1-1.58,1.58,4.084,4.084,0,0,1-1.18.38q-.621.1-2.26.221-1.761.079-7.24.12t-7.9-.04q-2.421-.081-3.7-.24a7.309,7.309,0,0,1-2.02-.54,3.08,3.08,0,0,1-1.18-1.021,6.178,6.178,0,0,1-.5-1.18,10.2,10.2,0,0,1-.38-1.46,45.8,45.8,0,0,1-.26-6.44,30.7,30.7,0,0,1,.46-5.76,4.364,4.364,0,0,1,1.26-2.359,4.127,4.127,0,0,1,2.44-.94q1.539-.14,5.1-.22t7.4-.04a67.119,67.119,0,0,1,9.2.42,3.365,3.365,0,0,1,2.08,1.439,7.5,7.5,0,0,1,.96,3.221q.12,1,.16,4.16A48.194,48.194,0,0,1,190.4,1383.12Zm-20.4-9.6v-1.841h-6.12v1.841h2.04v11.2h1.96v-11.2H170Zm-3.08-19.88.96-.04a2.863,2.863,0,0,1,1.02.08q.06.081.7,2.48t.68,2.4q.039,0,.56-2l.84-2.961h1c.426,0,.706.008.84.021s.186.047.16.1l-2.4,7.641v5.359h-1.96v-5.4Zm7.96,21.36h-1.84v7.4l-.44.439a1.426,1.426,0,0,1-.54.4.359.359,0,0,1-.34-.12,1.6,1.6,0,0,1-.14-.82q-.021-.7-.02-3.34V1375h-1.84v4.2q0,2.52.04,3.4a5.491,5.491,0,0,0,.12,1.44,1.139,1.139,0,0,0,.38.56,1.357,1.357,0,0,0,.78.221,1.6,1.6,0,0,0,.82-.141,3.9,3.9,0,0,0,.74-.56l.44-.4v1h1.84V1375Zm-1.3-9.68a3.514,3.514,0,0,1-.18-1.12q-.04-.6-.04-2.34t.04-2.38a3.763,3.763,0,0,1,.18-1.141,3.113,3.113,0,0,1,.46-.74,2.166,2.166,0,0,1,1.18-.7,2.934,2.934,0,0,1,1.48.02,2.289,2.289,0,0,1,1.18.72,2.67,2.67,0,0,1,.44.74,4.506,4.506,0,0,1,.16,1.141q.039.641.04,2.319,0,1.881-.04,2.46a6.663,6.663,0,0,1-.12.94,2.772,2.772,0,0,1-.66.92,2.629,2.629,0,0,1-1.82.741,3.789,3.789,0,0,1-.84-.181,2.053,2.053,0,0,1-.96-.68A2.933,2.933,0,0,1,173.581,1365.32Zm1.58-3.48q0,1.72.04,2.32a1.952,1.952,0,0,0,.18.88.617.617,0,0,0,.54.2,1.2,1.2,0,0,0,.38-.061.428.428,0,0,0,.26-.3,4.266,4.266,0,0,0,.12-.92q.039-.6.04-2.08a17.37,17.37,0,0,0-.12-3,.745.745,0,0,0-1.32,0A16.549,16.549,0,0,0,175.161,1361.84Zm6.36,15.04a3.616,3.616,0,0,0-.36-1.359,1.441,1.441,0,0,0-.52-.5,1.3,1.3,0,0,0-.66-.221,1.751,1.751,0,0,0-.7.181,2.374,2.374,0,0,0-.72.5l-.48.4v-4.2h-1.76v13.04h1.76v-.88l.4.36a2.8,2.8,0,0,0,.72.5,1.847,1.847,0,0,0,.82.12,1.718,1.718,0,0,0,.78-.181,1.445,1.445,0,0,0,.52-.64,2.617,2.617,0,0,0,.2-.84q.039-.48.04-2.84C181.587,1378.59,181.574,1377.44,181.521,1376.88Zm-1.94-.02a3.8,3.8,0,0,1,.14.979v2.24l-.04,2.72-.28.24a.7.7,0,0,1-.42.2,1.278,1.278,0,0,1-.54-.2l-.36-.2v-5.96l.44-.24c.186-.079.32-.133.4-.159a.48.48,0,0,1,.32.04A.539.539,0,0,1,179.581,1376.86Zm.42-11.68q-.04-.74-.04-3.859l-.04-4.44h1.84v4.08q0,2.64.04,3.38a2.135,2.135,0,0,0,.12.82q.36.281.96-.36l.36-.359v-7.561h1.84v9.84h-1.84v-1l-.48.4a2.481,2.481,0,0,1-.74.56,1.98,1.98,0,0,1-.74.12,1.355,1.355,0,0,1-.68-.14,1.269,1.269,0,0,1-.44-.5A2.944,2.944,0,0,1,180,1365.18Zm8.16,16.14h-1.92v.6a2.846,2.846,0,0,1-.08.78.827.827,0,0,1-.34.439.6.6,0,0,1-.56.08.931.931,0,0,1-.5-.42,2.074,2.074,0,0,1-.12-.52,8.847,8.847,0,0,1-.04-1v-1.12h3.52v-1.44a8.2,8.2,0,0,0-.16-1.939,2.691,2.691,0,0,0-.58-1.061,2.562,2.562,0,0,0-.88-.68,2.37,2.37,0,0,0-1.1-.16,2.893,2.893,0,0,0-.96.141,2.4,2.4,0,0,0-.8.5,2.185,2.185,0,0,0-.58.8,4.839,4.839,0,0,0-.26,1.319q-.04.8-.04,2.521.039,1.6.08,2.18a2.343,2.343,0,0,0,.16.82,2.475,2.475,0,0,0,1.24,1.4,2.347,2.347,0,0,0,1.2.279,3.123,3.123,0,0,0,1.2-.2,2.23,2.23,0,0,0,1.06-.9,3.412,3.412,0,0,0,.38-1.58Zm-3.56-2.64v-.72a2.08,2.08,0,0,1,.26-1.24.8.8,0,0,1,.84-.2c.386.079.58.56.58,1.439v.72Z" fill="#79828b"/>
  </g>
</svg>
